<svg xmlns="http://www.w3.org/2000/svg" width="900" height="260" viewBox="0 0 900 260" role="img" aria-labelledby="title" font-family="-apple-system, BlinkMacSystemFont, 'Segoe UI', Helvetica, Arial, sans-serif">
<title id="title">Request timeline, device:laya-typed-decisions:thread, matrix:gpu_M+ane_B cycle 0: GPU: 15 requests, mean dispatch 0.03 ms; ANE: 30 requests, mean dispatch 0.00 ms</title>
<style>
.bg{fill:#ffffff;stroke:#d1d9e0}.t{fill:#1f2328}.m{fill:#59636e}.grid{stroke:#e6e9ec}.ax{stroke:#8c959f}
.s1{fill:#2a78d6;stroke:#2a78d6}.s2{fill:#eb6834;stroke:#eb6834}.s3{fill:#1baf7a;stroke:#1baf7a}
.s4{fill:#eda100;stroke:#eda100}.ln{fill:none;stroke-width:2}.ring{stroke:#ffffff;stroke-width:2}
.c1{fill:#8c959f}.c2{fill:#2a78d6}.c3{fill:#eb6834}.c4{fill:#1baf7a}
@media (prefers-color-scheme: dark){
.bg{fill:#0d1117;stroke:#3d444d}.t{fill:#e6edf3}.m{fill:#9198a1}.grid{stroke:#21262d}.ax{stroke:#656c76}
.s1{fill:#3987e5;stroke:#3987e5}.s2{fill:#d95926;stroke:#d95926}.s3{fill:#199e70;stroke:#199e70}
.s4{fill:#c98500;stroke:#c98500}.ring{stroke:#0d1117}
.c1{fill:#656c76}.c2{fill:#3987e5}.c3{fill:#d95926}.c4{fill:#199e70}
}
</style>
<rect x="0.5" y="0.5" width="899" height="259" rx="10" class="bg"/>
<style>.p1{fill:#8c959f}.p2{fill:#d1d9e0}.p3{fill:#eb6834}.p4{fill:#2a78d6}.p5{fill:#1baf7a}.p6{fill:#eda100}.p7{fill:#cf2e6e}.p8{fill:#8250df}@media (prefers-color-scheme: dark){.p1{fill:#656c76}.p2{fill:#3d444d}.p3{fill:#d95926}.p4{fill:#3987e5}.p5{fill:#199e70}.p6{fill:#c98500}.p7{fill:#db4f86}.p8{fill:#9a6ef0}}</style>
<text x="24.0" y="32.0" class="t" font-size="16" font-weight="600">Request lifecycle, device:laya-typed-decisions:thread — matrix:gpu_M+ane_B cycle 0 (300 ms slice)</text>
<rect x="24" y="51" width="12" height="12" rx="2" class="p1"/>
<text x="41.0" y="61.0" class="m" font-size="12">prepare + route + enqueue</text>
<rect x="239.0" y="51" width="12" height="12" rx="2" class="p2"/>
<text x="256.0" y="61.0" class="m" font-size="12">queue</text>
<rect x="310.0" y="51" width="12" height="12" rx="2" class="p3"/>
<text x="327.0" y="61.0" class="m" font-size="12">dispatch</text>
<rect x="402.6" y="51" width="12" height="12" rx="2" class="p4"/>
<text x="419.6" y="61.0" class="m" font-size="12">device exec</text>
<rect x="24" y="71" width="12" height="12" rx="2" class="p5"/>
<text x="41.0" y="81.0" class="m" font-size="12">host</text>
<rect x="87.8" y="71" width="12" height="12" rx="2" class="p6"/>
<text x="104.8" y="81.0" class="m" font-size="12">unattributed</text>
<rect x="209.2" y="71" width="12" height="12" rx="2" class="p7"/>
<text x="226.2" y="81.0" class="m" font-size="12">return</text>
<rect x="287.4" y="71" width="12" height="12" rx="2" class="p8"/>
<text x="304.4" y="81.0" class="m" font-size="12">postprocess</text>
<line x1="80.0" x2="80.0" y1="112" y2="216" class="grid"/>
<text x="80.0" y="230.0" class="m" font-size="11" text-anchor="middle">0</text>
<line x1="213.3" x2="213.3" y1="112" y2="216" class="grid"/>
<text x="213.3" y="230.0" class="m" font-size="11" text-anchor="middle">50</text>
<line x1="346.7" x2="346.7" y1="112" y2="216" class="grid"/>
<text x="346.7" y="230.0" class="m" font-size="11" text-anchor="middle">100</text>
<line x1="480.0" x2="480.0" y1="112" y2="216" class="grid"/>
<text x="480.0" y="230.0" class="m" font-size="11" text-anchor="middle">150</text>
<line x1="613.3" x2="613.3" y1="112" y2="216" class="grid"/>
<text x="613.3" y="230.0" class="m" font-size="11" text-anchor="middle">200</text>
<line x1="746.7" x2="746.7" y1="112" y2="216" class="grid"/>
<text x="746.7" y="230.0" class="m" font-size="11" text-anchor="middle">250</text>
<line x1="880.0" x2="880.0" y1="112" y2="216" class="grid"/>
<text x="880.0" y="230.0" class="m" font-size="11" text-anchor="middle">300</text>
<text x="480.0" y="248.0" class="m" font-size="11" text-anchor="middle">ms after 195256.6 ms (run clock)</text>
<text x="70.0" y="130.0" class="t" font-size="12" text-anchor="end" font-weight="600">GPU</text>
<rect x="80.0" y="118" width="30.6" height="16" class="p4"/>
<rect x="110.6" y="118" width="1.0" height="16" class="p5"/>
<rect x="111.6" y="118" width="19.9" height="16" class="p7"/>
<rect x="131.7" y="118" width="0.4" height="16" class="p1"/>
<rect x="132.1" y="118" width="0.4" height="16" class="p2"/>
<rect x="132.5" y="118" width="32.6" height="16" class="p4"/>
<rect x="165.1" y="118" width="1.0" height="16" class="p5"/>
<rect x="166.2" y="118" width="19.5" height="16" class="p7"/>
<rect x="185.7" y="118" width="0.4" height="16" class="p1"/>
<rect x="186.1" y="118" width="0.4" height="16" class="p2"/>
<rect x="186.6" y="118" width="32.4" height="16" class="p4"/>
<rect x="219.0" y="118" width="1.1" height="16" class="p5"/>
<rect x="220.2" y="118" width="19.5" height="16" class="p7"/>
<rect x="239.8" y="118" width="0.4" height="16" class="p1"/>
<rect x="240.2" y="118" width="32.6" height="16" class="p4"/>
<rect x="272.8" y="118" width="1.1" height="16" class="p5"/>
<rect x="273.9" y="118" width="19.8" height="16" class="p7"/>
<rect x="293.9" y="118" width="0.4" height="16" class="p1"/>
<rect x="294.3" y="118" width="32.1" height="16" class="p4"/>
<rect x="326.5" y="118" width="1.1" height="16" class="p5"/>
<rect x="327.6" y="118" width="20.5" height="16" class="p7"/>
<rect x="348.2" y="118" width="0.4" height="16" class="p1"/>
<rect x="348.6" y="118" width="0.4" height="16" class="p2"/>
<rect x="349.0" y="118" width="32.6" height="16" class="p4"/>
<rect x="381.6" y="118" width="1.2" height="16" class="p5"/>
<rect x="382.8" y="118" width="19.8" height="16" class="p7"/>
<rect x="402.7" y="118" width="0.4" height="16" class="p1"/>
<rect x="403.2" y="118" width="32.6" height="16" class="p4"/>
<rect x="435.8" y="118" width="1.1" height="16" class="p5"/>
<rect x="436.9" y="118" width="20.4" height="16" class="p7"/>
<rect x="457.5" y="118" width="0.5" height="16" class="p1"/>
<rect x="458.1" y="118" width="31.9" height="16" class="p4"/>
<rect x="489.9" y="118" width="1.3" height="16" class="p5"/>
<rect x="491.2" y="118" width="21.2" height="16" class="p7"/>
<rect x="512.9" y="118" width="0.5" height="16" class="p1"/>
<rect x="513.4" y="118" width="0.5" height="16" class="p2"/>
<rect x="514.0" y="118" width="32.6" height="16" class="p4"/>
<rect x="546.6" y="118" width="1.5" height="16" class="p5"/>
<rect x="548.2" y="118" width="19.0" height="16" class="p7"/>
<rect x="567.3" y="118" width="0.4" height="16" class="p1"/>
<rect x="567.7" y="118" width="0.5" height="16" class="p2"/>
<rect x="568.3" y="118" width="32.4" height="16" class="p4"/>
<rect x="600.7" y="118" width="1.1" height="16" class="p5"/>
<rect x="601.8" y="118" width="20.3" height="16" class="p7"/>
<rect x="622.2" y="118" width="0.4" height="16" class="p1"/>
<rect x="622.7" y="118" width="32.4" height="16" class="p4"/>
<rect x="655.1" y="118" width="1.1" height="16" class="p5"/>
<rect x="656.2" y="118" width="19.8" height="16" class="p7"/>
<rect x="676.1" y="118" width="0.4" height="16" class="p1"/>
<rect x="676.5" y="118" width="0.5" height="16" class="p2"/>
<rect x="677.0" y="118" width="32.4" height="16" class="p4"/>
<rect x="709.4" y="118" width="1.1" height="16" class="p5"/>
<rect x="710.5" y="118" width="19.8" height="16" class="p7"/>
<rect x="730.5" y="118" width="0.4" height="16" class="p1"/>
<rect x="730.9" y="118" width="32.5" height="16" class="p4"/>
<rect x="763.5" y="118" width="1.2" height="16" class="p5"/>
<rect x="764.6" y="118" width="20.3" height="16" class="p7"/>
<rect x="785.1" y="118" width="0.3" height="16" class="p1"/>
<rect x="785.6" y="118" width="32.3" height="16" class="p4"/>
<rect x="817.9" y="118" width="1.1" height="16" class="p5"/>
<rect x="819.0" y="118" width="19.7" height="16" class="p7"/>
<rect x="838.8" y="118" width="0.3" height="16" class="p1"/>
<rect x="839.3" y="118" width="32.5" height="16" class="p4"/>
<rect x="871.8" y="118" width="1.1" height="16" class="p5"/>
<rect x="872.8" y="118" width="7.2" height="16" class="p7"/>
<text x="70.0" y="176.0" class="t" font-size="12" text-anchor="end" font-weight="600">ANE</text>
<rect x="80.0" y="164" width="24.0" height="16" class="p4"/>
<rect x="104.0" y="164" width="0.6" height="16" class="p5"/>
<rect x="104.8" y="164" width="0.3" height="16" class="p1"/>
<rect x="105.2" y="164" width="25.7" height="16" class="p4"/>
<rect x="130.8" y="164" width="0.6" height="16" class="p5"/>
<rect x="132.1" y="164" width="0.3" height="16" class="p1"/>
<rect x="132.4" y="164" width="25.6" height="16" class="p4"/>
<rect x="158.1" y="164" width="0.7" height="16" class="p5"/>
<rect x="158.9" y="164" width="0.3" height="16" class="p1"/>
<rect x="159.2" y="164" width="25.7" height="16" class="p4"/>
<rect x="184.9" y="164" width="0.6" height="16" class="p5"/>
<rect x="186.2" y="164" width="0.3" height="16" class="p1"/>
<rect x="186.5" y="164" width="25.7" height="16" class="p4"/>
<rect x="212.2" y="164" width="0.7" height="16" class="p5"/>
<rect x="212.9" y="164" width="0.3" height="16" class="p1"/>
<rect x="213.3" y="164" width="25.7" height="16" class="p4"/>
<rect x="239.0" y="164" width="0.6" height="16" class="p5"/>
<rect x="240.2" y="164" width="0.3" height="16" class="p1"/>
<rect x="240.6" y="164" width="25.7" height="16" class="p4"/>
<rect x="266.3" y="164" width="0.6" height="16" class="p5"/>
<rect x="267.1" y="164" width="0.3" height="16" class="p1"/>
<rect x="267.4" y="164" width="25.7" height="16" class="p4"/>
<rect x="293.1" y="164" width="0.6" height="16" class="p5"/>
<rect x="294.3" y="164" width="0.3" height="16" class="p1"/>
<rect x="294.7" y="164" width="25.7" height="16" class="p4"/>
<rect x="320.4" y="164" width="0.7" height="16" class="p5"/>
<rect x="321.3" y="164" width="0.4" height="16" class="p1"/>
<rect x="321.8" y="164" width="26.4" height="16" class="p4"/>
<rect x="348.2" y="164" width="0.7" height="16" class="p5"/>
<rect x="349.0" y="164" width="0.3" height="16" class="p1"/>
<rect x="349.4" y="164" width="25.8" height="16" class="p4"/>
<rect x="375.1" y="164" width="0.6" height="16" class="p5"/>
<rect x="375.9" y="164" width="0.4" height="16" class="p1"/>
<rect x="376.3" y="164" width="25.6" height="16" class="p4"/>
<rect x="401.9" y="164" width="0.6" height="16" class="p5"/>
<rect x="403.2" y="164" width="0.3" height="16" class="p1"/>
<rect x="403.5" y="164" width="25.7" height="16" class="p4"/>
<rect x="429.3" y="164" width="0.6" height="16" class="p5"/>
<rect x="430.0" y="164" width="0.4" height="16" class="p1"/>
<rect x="430.4" y="164" width="25.7" height="16" class="p4"/>
<rect x="456.0" y="164" width="0.6" height="16" class="p5"/>
<rect x="456.8" y="164" width="0.5" height="16" class="p1"/>
<rect x="457.3" y="164" width="0.8" height="16" class="p2"/>
<rect x="458.1" y="164" width="26.0" height="16" class="p4"/>
<rect x="484.0" y="164" width="0.9" height="16" class="p5"/>
<rect x="485.3" y="164" width="0.5" height="16" class="p1"/>
<rect x="485.9" y="164" width="26.2" height="16" class="p4"/>
<rect x="512.0" y="164" width="0.8" height="16" class="p5"/>
<rect x="513.4" y="164" width="0.4" height="16" class="p1"/>
<rect x="513.8" y="164" width="25.8" height="16" class="p4"/>
<rect x="539.6" y="164" width="0.8" height="16" class="p5"/>
<rect x="540.6" y="164" width="0.4" height="16" class="p1"/>
<rect x="541.0" y="164" width="25.3" height="16" class="p4"/>
<rect x="566.3" y="164" width="0.7" height="16" class="p5"/>
<rect x="567.7" y="164" width="0.4" height="16" class="p1"/>
<rect x="568.2" y="164" width="25.8" height="16" class="p4"/>
<rect x="594.0" y="164" width="0.7" height="16" class="p5"/>
<rect x="594.9" y="164" width="0.4" height="16" class="p1"/>
<rect x="595.3" y="164" width="25.6" height="16" class="p4"/>
<rect x="620.8" y="164" width="0.6" height="16" class="p5"/>
<rect x="621.6" y="164" width="0.4" height="16" class="p1"/>
<rect x="622.0" y="164" width="25.8" height="16" class="p4"/>
<rect x="647.7" y="164" width="1.3" height="16" class="p5"/>
<rect x="649.1" y="164" width="0.4" height="16" class="p1"/>
<rect x="649.5" y="164" width="25.7" height="16" class="p4"/>
<rect x="675.2" y="164" width="0.6" height="16" class="p5"/>
<rect x="676.5" y="164" width="0.3" height="16" class="p1"/>
<rect x="676.9" y="164" width="25.8" height="16" class="p4"/>
<rect x="702.7" y="164" width="0.7" height="16" class="p5"/>
<rect x="703.5" y="164" width="0.3" height="16" class="p1"/>
<rect x="703.8" y="164" width="25.7" height="16" class="p4"/>
<rect x="729.5" y="164" width="0.7" height="16" class="p5"/>
<rect x="730.9" y="164" width="0.3" height="16" class="p1"/>
<rect x="731.3" y="164" width="25.8" height="16" class="p4"/>
<rect x="757.0" y="164" width="0.6" height="16" class="p5"/>
<rect x="757.8" y="164" width="0.3" height="16" class="p1"/>
<rect x="758.1" y="164" width="25.7" height="16" class="p4"/>
<rect x="783.8" y="164" width="0.6" height="16" class="p5"/>
<rect x="784.5" y="164" width="0.3" height="16" class="p1"/>
<rect x="784.9" y="164" width="25.7" height="16" class="p4"/>
<rect x="810.6" y="164" width="1.2" height="16" class="p5"/>
<rect x="811.9" y="164" width="0.4" height="16" class="p1"/>
<rect x="812.3" y="164" width="25.7" height="16" class="p4"/>
<rect x="838.0" y="164" width="0.6" height="16" class="p5"/>
<rect x="839.3" y="164" width="0.3" height="16" class="p1"/>
<rect x="839.6" y="164" width="25.7" height="16" class="p4"/>
<rect x="865.3" y="164" width="0.6" height="16" class="p5"/>
<rect x="866.1" y="164" width="0.3" height="16" class="p1"/>
<rect x="866.4" y="164" width="13.6" height="16" class="p4"/>
</svg>
